<svg width="142" height="98" viewBox="0 0 142 98" fill="none" xmlns="http://www.w3.org/2000/svg">
<path d="M62.125 75.8306H79.875V0H128.133V10.3011H142V52.0625H135.028V66.2614H128.133V76.0057H122.529V89.8495H128.358V98H12.4358V89.8495H19.5592V76.0057H13.8672V66.2614H6.97151V52.0625H0V10.3011H13.8672V0H62.125V75.8306Z" fill="#51504F"/>
<path d="M31.3398 55.4016H10.5391V48.4414H31.3398V55.4016Z" fill="#D9D9D9"/>
<path d="M131.461 55.4016H110.66V48.4414H131.461V55.4016Z" fill="#D9D9D9"/>
<path d="M38.2734 48.4414H31.3398V41.4812H38.2734V48.4414Z" fill="#D9D9D9"/>
<path d="M110.66 48.4414H103.727V41.4812H110.66V48.4414Z" fill="#D9D9D9"/>
<path d="M45.207 40.9244H38.2734V33.9641H45.207V40.9244Z" fill="#D9D9D9"/>
<path d="M103.727 40.9244H96.793V33.9641H103.727V40.9244Z" fill="#D9D9D9"/>
<path d="M52.1406 27.0039V33.9641H45.207V27.0039H52.1406Z" fill="#D9D9D9"/>
<path d="M96.793 33.9641H89.8594V27.0039H96.793V33.9641Z" fill="#D9D9D9"/>
</svg>
